<svg width="115" height="140" viewBox="0 0 115 140" fill="none" xmlns="http://www.w3.org/2000/svg">
<g filter="url(#filter0_d)">
<rect x="10" y="6" width="95" height="120" rx="5" fill="white"/>
</g>
<path d="M57 44H78C80.7614 44 83 46.2386 83 49V59H57V44Z" fill="#027FFF" fill-opacity="0.72"/>
<path d="M76.75 68.5V51.8333C76.75 50.7283 76.311 49.6685 75.5296 48.8871C74.7482 48.1057 73.6884 47.6667 72.5833 47.6667H55.9167V60.1667M39.25 45.5833V68.5V45.5833ZM39.25 60.1667H76.75H39.25Z" stroke="black" stroke-width="2.75" stroke-linecap="round" stroke-linejoin="round"/>
<path d="M47.5833 53.9167C48.7339 53.9167 49.6667 52.9839 49.6667 51.8333C49.6667 50.6827 48.7339 49.75 47.5833 49.75C46.4327 49.75 45.5 50.6827 45.5 51.8333C45.5 52.9839 46.4327 53.9167 47.5833 53.9167Z" stroke="black" stroke-width="2.75" stroke-linecap="round" stroke-linejoin="round"/>
<path d="M57.5 19C51.1592 19 46 24.1592 46 30.5C46 36.8408 51.1592 42 57.5 42C63.8408 42 69 36.8408 69 30.5C69 24.1592 63.8408 19 57.5 19ZM57.5 40.5625C51.9527 40.5625 47.4375 36.0487 47.4375 30.5C47.4375 24.9513 51.9527 20.4375 57.5 20.4375C63.0473 20.4375 67.5625 24.9513 67.5625 30.5C67.5625 36.0487 63.0473 40.5625 57.5 40.5625Z" fill="black"/>
<path d="M61.0937 27.625H60.3017C60.1939 27.0903 59.9552 26.6072 59.6376 26.1875H61.0937C61.4905 26.1875 61.8125 25.8655 61.8125 25.4688C61.8125 25.072 61.4905 24.75 61.0937 24.75H56.7812H53.9062C53.5095 24.75 53.1875 25.072 53.1875 25.4688C53.1875 25.8655 53.5095 26.1875 53.9062 26.1875H56.7812C57.7171 26.1875 58.5077 26.7898 58.8052 27.625H53.9062C53.5095 27.625 53.1875 27.947 53.1875 28.3438C53.1875 28.7405 53.5095 29.0625 53.9062 29.0625H58.8052C58.5077 29.8977 57.7171 30.5 56.7812 30.5H53.9062C53.8128 30.5 53.7194 30.5187 53.6317 30.5546C53.4563 30.6279 53.3154 30.7674 53.2421 30.9442C53.1688 31.1196 53.1688 31.3179 53.2421 31.4933C53.2781 31.5824 53.3312 31.6615 53.3988 31.7276L59.1474 37.4762C59.2882 37.6171 59.4722 37.6875 59.6562 37.6875C59.8402 37.6875 60.0242 37.6171 60.1651 37.4776C60.4454 37.1973 60.4454 36.7416 60.1651 36.4613L55.6413 31.9375H56.7812C58.5177 31.9375 59.9682 30.7013 60.3017 29.0625H61.0937C61.4905 29.0625 61.8125 28.7405 61.8125 28.3438C61.8125 27.947 61.4905 27.625 61.0937 27.625Z" fill="black"/>
<defs>
<filter id="filter0_d" x="0" y="0" width="115" height="140" filterUnits="userSpaceOnUse" color-interpolation-filters="sRGB">
<feFlood flood-opacity="0" result="BackgroundImageFix"/>
<feColorMatrix in="SourceAlpha" type="matrix" values="0 0 0 0 0 0 0 0 0 0 0 0 0 0 0 0 0 0 127 0"/>
<feOffset dy="4"/>
<feGaussianBlur stdDeviation="5"/>
<feColorMatrix type="matrix" values="0 0 0 0 0 0 0 0 0 0 0 0 0 0 0 0 0 0 0.15 0"/>
<feBlend mode="normal" in2="BackgroundImageFix" result="effect1_dropShadow"/>
<feBlend mode="normal" in="SourceGraphic" in2="effect1_dropShadow" result="shape"/>
</filter>
</defs>
</svg>
