<svg width="50" height="50" viewBox="0 0 50 50" fill="none" xmlns="http://www.w3.org/2000/svg">
<path d="M24 11H45C47.7614 11 50 13.2386 50 16V26H24V11Z" fill="#027FFF" fill-opacity="0.72"/>
<path d="M43.75 37.5V20.8333C43.75 19.7283 43.311 18.6685 42.5296 17.8871C41.7482 17.1056 40.6884 16.6667 39.5833 16.6667H22.9167V29.1667M6.25 14.5833V37.5V14.5833ZM6.25 29.1667H43.75H6.25Z" stroke="black" stroke-width="2.75" stroke-linecap="round" stroke-linejoin="round"/>
<path d="M14.5833 22.9167C15.7339 22.9167 16.6667 21.9839 16.6667 20.8333C16.6667 19.6827 15.7339 18.75 14.5833 18.75C13.4327 18.75 12.5 19.6827 12.5 20.8333C12.5 21.9839 13.4327 22.9167 14.5833 22.9167Z" stroke="black" stroke-width="2.75" stroke-linecap="round" stroke-linejoin="round"/>
</svg>
