<svg width="50" height="50" viewBox="0 0 50 50" fill="none" xmlns="http://www.w3.org/2000/svg">
<circle cx="27.5" cy="21.5" r="15.5" fill="#027FFF" fill-opacity="0.72"/>
<path d="M35.4067 16.8517L34.8717 15.0908C34.1921 13.0906 32.0197 12.0201 30.0195 12.6997C28.8943 13.082 28.0106 13.9656 27.6283 15.0908L27.0933 16.8517C26.6431 18.3367 26.5486 19.9068 26.8175 21.435C27.0627 22.7217 27.8796 23.8271 29.0375 24.4392L28.4383 37.8333C28.3581 38.5809 28.6006 39.3273 29.105 39.885C30.1897 41.0715 32.0309 41.154 33.2174 40.0693C33.2816 40.0106 33.343 39.9492 33.4017 39.885C33.8948 39.3431 34.1369 38.6186 34.0683 37.8892L33.4658 24.4375C34.6222 23.8251 35.4377 22.7204 35.6825 21.435C35.9514 19.9068 35.8569 18.3367 35.4067 16.8517ZM34.0408 21.145C33.8604 22.0694 33.2017 22.8278 32.3117 23.1358C31.9739 23.2628 31.7563 23.5928 31.7725 23.9533L32.4058 38.0208C32.435 38.2968 32.344 38.5719 32.1558 38.7758C31.6541 39.2726 30.8459 39.2726 30.3442 38.7758C30.1467 38.5554 30.057 38.2587 30.0992 37.9658L30.7275 23.9533C30.7438 23.5928 30.5262 23.2628 30.1883 23.1358C29.2983 22.8278 28.6396 22.0694 28.4592 21.145C28.2363 19.8763 28.3148 18.5728 28.6883 17.34L29.2233 15.5783C29.6373 14.4591 30.8802 13.8873 31.9996 14.3013C32.5914 14.5201 33.0578 14.9867 33.2767 15.5783L33.8117 17.34C34.1848 18.5729 34.2633 19.8763 34.0408 21.145Z" fill="black"/>
<path d="M22.5 12.5C22.0398 12.5 21.6667 12.8731 21.6667 13.3333V20.4883L19.4109 22.7442C19.244 22.9104 19.1552 23.1397 19.1667 23.375L19.8959 37.9583C19.9132 38.2728 19.7991 38.5804 19.5809 38.8075C19.1247 39.2677 18.3818 39.271 17.9215 38.8148C17.919 38.8124 17.9166 38.8099 17.9142 38.8075C17.6959 38.5804 17.5818 38.2728 17.5992 37.9583L18.3334 23.375C18.345 23.1398 18.2566 22.9106 18.09 22.7442L15.8334 20.4883V13.3333C15.8334 12.8731 15.4602 12.5 15 12.5C14.5398 12.5 14.1667 12.8731 14.1667 13.3333V20.8333C14.1667 21.0544 14.2546 21.2663 14.4109 21.4225L16.6492 23.6617L15.9384 37.8775C15.8627 39.4303 17.0602 40.7505 18.613 40.8261C20.1659 40.9018 21.4861 39.7043 21.5617 38.1515C21.5662 38.0602 21.5662 37.9689 21.5617 37.8776L20.8509 23.6618L23.0892 21.4226C23.2454 21.2664 23.3334 21.0545 23.3334 20.8334V13.3334C23.3334 12.8731 22.9602 12.5 22.5 12.5Z" fill="black"/>
<path d="M17.5 12.5C17.0398 12.5 16.6667 12.8731 16.6667 13.3333V20C16.6667 20.4602 17.0398 20.8333 17.5 20.8333C17.9602 20.8333 18.3334 20.4602 18.3334 20V13.3333C18.3334 12.8731 17.9602 12.5 17.5 12.5Z" fill="black"/>
<path d="M20 12.5C19.5398 12.5 19.1667 12.8731 19.1667 13.3333V20C19.1667 20.4602 19.5398 20.8333 20 20.8333C20.4602 20.8333 20.8334 20.4602 20.8334 20V13.3333C20.8334 12.8731 20.4602 12.5 20 12.5Z" fill="black"/>
<path d="M25 0C11.1929 0 0 11.1929 0 25C0 38.8071 11.1929 50 25 50C38.8071 50 50 38.8071 50 25C49.9844 11.1994 38.8006 0.015625 25 0ZM25 48.3333C12.1133 48.3333 1.66667 37.8867 1.66667 25C1.66667 12.1133 12.1133 1.66667 25 1.66667C37.8867 1.66667 48.3333 12.1133 48.3333 25C48.3186 37.8805 37.8805 48.3186 25 48.3333Z" fill="black"/>
<path d="M27.7051 40.6429C27.6604 40.1849 27.2528 39.8498 26.7947 39.8945C26.784 39.8955 26.7732 39.8968 26.7625 39.8982L26.7658 39.8974C25.5926 40.0336 24.4074 40.0336 23.2342 39.8974C22.7769 39.8438 22.3628 40.1709 22.3092 40.6282C22.2555 41.0855 22.5827 41.4996 23.04 41.5532C24.3411 41.7052 25.6555 41.7052 26.9567 41.5532C27.4147 41.5086 27.7498 41.101 27.7051 40.6429Z" fill="black"/>
<path d="M37.75 14.2617C37.4543 13.9091 36.9287 13.8629 36.5761 14.1587C36.5749 14.1597 36.5738 14.1607 36.5725 14.1617C36.2207 14.4583 36.1759 14.984 36.4725 15.3358C41.497 21.3004 41.1126 30.1201 35.5883 35.625C35.2623 35.9499 35.2614 36.4777 35.5863 36.8038C35.9112 37.1298 36.439 37.1307 36.765 36.8058C42.9043 30.6899 43.3324 20.8897 37.75 14.2617Z" fill="black"/>
<path d="M19.4158 11.015C19.4153 11.015 19.4147 11.0149 19.4142 11.0149C19.4134 11.0149 19.4126 11.015 19.4116 11.015H19.4158Z" fill="black"/>
<path d="M28.9308 8.79917C25.674 8.01864 22.2584 8.22844 19.1216 9.40166C18.6908 9.56364 18.473 10.0443 18.635 10.475C18.7571 10.7997 19.0675 11.0146 19.4142 11.0149C19.5139 11.0144 19.6127 10.9961 19.7058 10.9608C22.5306 9.90448 25.6064 9.71583 28.5392 10.4192C28.9865 10.5273 29.4369 10.2524 29.545 9.805C29.6531 9.3576 29.3782 8.90729 28.9308 8.79917Z" fill="black"/>
<path d="M14.3742 35.5833C11.5649 32.7789 9.99041 28.9696 10 25C9.99177 21.8285 10.9964 18.7373 12.8675 16.1767C13.1441 15.8088 13.07 15.2864 12.7021 15.0098C12.3342 14.7332 11.8118 14.8073 11.5352 15.1752C11.5303 15.1818 11.5255 15.1883 11.5208 15.195C6.7028 21.8188 7.41176 30.9616 13.1933 36.7633C13.5192 37.0894 14.0477 37.0896 14.3738 36.7638C14.6998 36.4379 14.7 35.9094 14.3742 35.5833Z" fill="black"/>
</svg>
