<svg width="44" height="44" viewBox="0 0 44 44" fill="none" xmlns="http://www.w3.org/2000/svg">
<path d="M19.5 24.5C20.3 22.1 23.5 15.8333 25 13V9.5C26.6667 12.3333 29 15.9 31 19.5C33.5 24 33.3664 29.7603 31.5 32C29 35 23 35 21 33C19 31 18.5 27.5 19.5 24.5Z" fill="#027FFF" fill-opacity="0.72"/>
<path d="M12.4667 20.1667C11.5025 21.839 10.9954 23.7356 10.9963 25.6659C10.9972 27.5962 11.5061 29.4923 12.4718 31.1637C13.4374 32.8351 14.8259 34.223 16.4978 35.1879C18.1697 36.1528 20.066 36.6608 21.9963 36.6608C23.9267 36.6608 25.823 36.1528 27.4949 35.1879C29.1667 34.223 30.5552 32.8351 31.5209 31.1637C32.4866 29.4923 32.9954 27.5962 32.9963 25.6659C32.9972 23.7356 32.4901 21.839 31.526 20.1667L21.9982 5.5L12.4648 20.1667H12.4667Z" stroke="black" stroke-width="2.2" stroke-linecap="round" stroke-linejoin="round"/>
</svg>
