<svg width="50" height="50" viewBox="0 0 50 50" fill="none" xmlns="http://www.w3.org/2000/svg">
<path d="M40.5674 30.6085C40.821 30.089 40.9699 29.5246 41.0054 28.9476C41.0409 28.3706 40.9624 27.7922 40.7744 27.2456C40.5863 26.6989 40.2925 26.1946 39.9096 25.7615C39.5267 25.3284 39.0622 24.9749 38.5427 24.7213C38.0232 24.4677 37.4589 24.3189 36.8818 24.2834C36.3048 24.2479 35.7265 24.3264 35.1798 24.5144C34.6331 24.7024 34.1288 24.9962 33.6957 25.3791C33.2626 25.762 32.9091 26.2265 32.6555 26.746L28.6834 34.8828C28.4298 35.4023 28.281 35.9667 28.2455 36.5437C28.21 37.1207 28.2885 37.6991 28.4765 38.2458C28.6645 38.7924 28.9584 39.2967 29.3413 39.7298C29.7242 40.163 30.1886 40.5164 30.7081 40.77C31.7574 41.2819 32.967 41.3561 34.071 40.9764C35.175 40.5967 36.083 39.7941 36.5954 38.7451L40.5674 30.6085ZM33.7085 27.2602C33.8943 26.8784 34.1535 26.5371 34.4714 26.2556C34.7892 25.9741 35.1593 25.758 35.5607 25.6197C35.9621 25.4814 36.3868 25.4236 36.8106 25.4495C37.2343 25.4755 37.6488 25.5847 38.0303 25.7709C38.4118 25.9572 38.7529 26.2168 39.034 26.5349C39.3151 26.8531 39.5307 27.2235 39.6685 27.6251C39.8064 28.0266 39.8637 28.4514 39.8372 28.8751C39.8108 29.2988 39.7011 29.7131 39.5144 30.0944L37.7859 33.6362L31.9795 30.802L33.7085 27.2602ZM35.5423 38.2311C35.1657 39.0002 34.4994 39.5886 33.6895 39.8672C32.8796 40.1457 31.9923 40.0916 31.2222 39.7168C30.4523 39.341 29.8632 38.6747 29.5846 37.8645C29.3059 37.0544 29.3605 36.1667 29.7364 35.3968L31.4655 31.8555L37.2713 34.6897L35.5423 38.2311Z" fill="black"/>
<path d="M35.808 26.1426C35.3995 26.2818 35.0227 26.5007 34.6993 26.7865C34.376 27.0724 34.1125 27.4195 33.9242 27.8079L33.196 29.2997C33.1278 29.4393 33.1178 29.6004 33.1682 29.7474C33.2187 29.8944 33.3255 30.0153 33.4652 30.0836C33.6048 30.1518 33.7658 30.1618 33.9128 30.1114C34.0598 30.0609 34.1808 29.9541 34.249 29.8144L34.9773 28.3227C35.0984 28.0729 35.2678 27.8496 35.4759 27.6657C35.6839 27.4818 35.9263 27.341 36.1891 27.2514C36.263 27.2273 36.3313 27.1887 36.3902 27.1379C36.449 27.0871 36.4972 27.0252 36.5318 26.9556C36.5665 26.886 36.5869 26.8103 36.592 26.7327C36.5971 26.6552 36.5867 26.5774 36.5615 26.5039C36.5362 26.4304 36.4966 26.3626 36.4449 26.3046C36.3932 26.2466 36.3305 26.1994 36.2604 26.1658C36.1903 26.1323 36.1142 26.113 36.0366 26.1091C35.9589 26.1052 35.8813 26.1168 35.8082 26.1433L35.808 26.1426Z" fill="black"/>
<path d="M5 19C5 16.2386 7.23858 14 10 14H23C25.7614 14 28 16.2386 28 19V44C28 44.5523 27.5523 45 27 45H6C5.44772 45 5 44.5523 5 44V19Z" fill="#027FFF" fill-opacity="0.72"/>
<path d="M46.5011 30.3154C45.4519 29.8033 44.2422 29.7289 43.1381 30.1086C42.034 30.4883 41.1261 31.2911 40.6139 32.3403L36.6417 40.477C36.132 41.5258 36.0593 42.7341 36.4395 43.8366C36.8198 44.939 37.6219 45.8456 38.6699 46.3572C39.7179 46.8688 40.926 46.9436 42.0292 46.5653C43.1323 46.1871 44.0403 45.3865 44.5537 44.3395L48.5258 36.2027C48.7794 35.6832 48.9282 35.1188 48.9637 34.5418C48.9993 33.9648 48.9208 33.3864 48.7327 32.8397C48.5447 32.2931 48.2509 31.7888 47.868 31.3556C47.4851 30.9225 47.0206 30.569 46.5011 30.3154ZM43.5007 43.8253C43.1248 44.5952 42.4585 45.1843 41.6484 45.4629C40.8382 45.7416 39.9505 45.687 39.1806 45.3111C38.4107 44.9353 37.8216 44.269 37.5429 43.4588C37.2643 42.6486 37.3189 41.7609 37.6947 40.991L39.4233 37.4492L45.2297 40.2832L43.5007 43.8253ZM47.4728 35.6887L45.7443 39.2305L39.9379 36.3965L41.6664 32.8547C41.8522 32.473 42.1114 32.1316 42.4292 31.8501C42.747 31.5686 43.1172 31.3526 43.5186 31.2143C43.92 31.076 44.3447 31.0181 44.7684 31.0441C45.1922 31.07 45.6067 31.1792 45.9882 31.3655C46.3697 31.5517 46.7107 31.8113 46.9918 32.1295C47.2729 32.4476 47.4886 32.818 47.6264 33.2196C47.7642 33.6211 47.8216 34.0459 47.7951 34.4696C47.7687 34.8933 47.659 35.3077 47.4723 35.689L47.4728 35.6887Z" fill="black"/>
<path d="M43.7664 31.7369C43.3578 31.8761 42.9809 32.095 42.6576 32.3809C42.3342 32.6668 42.0708 33.014 41.8826 33.4024L41.1543 34.8941C41.1183 34.9634 41.0964 35.0393 41.0901 35.1173C41.0838 35.1952 41.0932 35.2736 41.1176 35.3479C41.1421 35.4222 41.1812 35.4908 41.2326 35.5497C41.284 35.6086 41.3467 35.6567 41.417 35.691C41.4872 35.7253 41.5637 35.7452 41.6417 35.7496C41.7198 35.7539 41.798 35.7425 41.8716 35.7162C41.9452 35.6898 42.0128 35.649 42.0704 35.5961C42.128 35.5432 42.1745 35.4793 42.207 35.4082L42.9353 33.9164C43.0564 33.6666 43.2258 33.4433 43.4338 33.2594C43.6418 33.0755 43.8842 32.9347 44.147 32.8451C44.2205 32.8207 44.2883 32.7819 44.3467 32.731C44.4051 32.6802 44.4528 32.6183 44.4871 32.5489C44.5214 32.4795 44.5416 32.404 44.5466 32.3267C44.5515 32.2495 44.5411 32.172 44.516 32.0988C44.4908 32.0256 44.4514 31.9581 44.4 31.9002C44.3486 31.8423 44.2862 31.7952 44.2165 31.7615C44.1468 31.7279 44.0711 31.7084 43.9938 31.7041C43.9165 31.6999 43.8391 31.7111 43.7662 31.7369H43.7664Z" fill="black"/>
<path d="M21.9647 13.1292C22.5573 13.0632 23.105 12.7812 23.5029 12.3371C23.9009 11.893 24.1213 11.3178 24.1221 10.7215V5.01123C24.1214 4.36891 23.8659 3.75311 23.4116 3.29895C22.9574 2.8448 22.3416 2.58939 21.6992 2.58877H5.0293C4.38715 2.58965 3.77155 2.84517 3.31754 3.2993C2.86352 3.75342 2.60815 4.36908 2.60742 5.01123V10.7215C2.60815 11.3636 2.86352 11.9793 3.31754 12.4334C3.77155 12.8875 4.38715 13.1431 5.0293 13.1439H5.37393C4.84851 13.4722 4.35167 13.8441 3.88867 14.2558C2.11846 15.8303 1.07549 17.7616 1.02734 19.5536V19.5694V44.1593C1.02734 45.7706 2.61914 47.4112 4.18086 47.4112H22.9436C23.7106 47.4112 24.4279 47.0216 24.9651 46.3142C25.4348 45.693 25.6932 44.9377 25.7024 44.159V19.5691C25.7021 17.0713 23.9649 14.5475 21.9647 13.1292ZM20.8633 3.76064H21.6992C22.0309 3.7609 22.3488 3.89273 22.5834 4.12719C22.8179 4.36166 22.9498 4.6796 22.9502 5.01123V10.7215C22.9498 11.0531 22.8179 11.3711 22.5834 11.6055C22.3488 11.84 22.0309 11.9718 21.6992 11.9721H20.8633V3.76064ZM17.4068 3.76064H19.6914V11.9721H17.4068V3.76064ZM13.8522 3.76064H16.235V11.9721H13.8522V3.76064ZM10.4945 3.76064H12.6803V11.9721H10.4941L10.4945 3.76064ZM6.93985 3.76064H9.32266V11.9721H6.93985V3.76064ZM5.0293 11.9721C4.69784 11.9716 4.3801 11.8396 4.14578 11.6052C3.91145 11.3707 3.77966 11.0529 3.7793 10.7215V5.01123C3.77966 4.67977 3.91145 4.36197 4.14578 4.12754C4.3801 3.8931 4.69784 3.76116 5.0293 3.76064H5.76699V11.9721H5.0293ZM24.5302 38.3172H8.25469V23.2936H24.5302V38.3172ZM24.5302 22.1217H7.66875C7.51335 22.1217 7.36432 22.1834 7.25443 22.2933C7.14455 22.4032 7.08282 22.5522 7.08282 22.7076V38.9031C7.08282 39.0585 7.14455 39.2076 7.25443 39.3174C7.36432 39.4273 7.51335 39.4891 7.66875 39.4891H24.5302V44.159C24.5302 45.1012 23.8225 46.2391 22.9436 46.2391H4.18057C3.27305 46.2391 2.19893 45.1113 2.19893 44.159V19.5777C2.2415 18.1095 3.14092 16.4894 4.66768 15.1313C6.0041 13.9426 7.63828 13.1439 8.73409 13.1439H18.904C20.9703 13.1439 24.5302 16.319 24.5302 19.5697V22.1217Z" fill="black"/>
<path d="M11.5508 33.0701H14.52V36.0389C14.5202 36.2466 14.6028 36.4457 14.7497 36.5926C14.8966 36.7395 15.0957 36.8221 15.3034 36.8223H17.7723C17.98 36.8221 18.1791 36.7395 18.326 36.5926C18.4729 36.4457 18.5555 36.2466 18.5558 36.0389V33.0701H21.5245C21.7322 33.0699 21.9314 32.9873 22.0783 32.8404C22.2252 32.6935 22.3078 32.4943 22.308 32.2866V29.8178C22.3078 29.6101 22.2251 29.4109 22.0782 29.2641C21.9314 29.1172 21.7322 29.0346 21.5245 29.0344H18.5558V26.0656C18.5555 25.8579 18.4729 25.6588 18.326 25.5119C18.1792 25.365 17.98 25.2824 17.7723 25.2821H15.3034C15.0957 25.2824 14.8966 25.365 14.7497 25.5119C14.6028 25.6588 14.5202 25.8579 14.52 26.0656V29.0344H11.5513C11.3436 29.0346 11.1445 29.1172 10.9976 29.2641C10.8507 29.4109 10.7681 29.6101 10.7679 29.8178V32.2866C10.7681 32.4943 10.8506 32.6933 10.9974 32.8402C11.1441 32.9871 11.3432 33.0698 11.5508 33.0701ZM11.9393 30.2063H14.908C15.1157 30.206 15.3149 30.1234 15.4617 29.9765C15.6086 29.8297 15.6913 29.6306 15.6915 29.4229V26.4536H17.3835V29.4229C17.3837 29.6306 17.4664 29.8297 17.6132 29.9765C17.7601 30.1234 17.9592 30.206 18.1669 30.2063H21.1361V31.8982H18.1674C17.9597 31.8984 17.7605 31.9811 17.6137 32.1279C17.4668 32.2748 17.3842 32.4739 17.384 32.6816V35.6504H15.6919V32.6816C15.6917 32.4739 15.609 32.2748 15.4622 32.1279C15.3153 31.981 15.1161 31.8984 14.9084 31.8982H11.9397L11.9393 30.2063Z" fill="black"/>
<path d="M4.55127 24.4202C4.39587 24.4202 4.24683 24.4819 4.13695 24.5918C4.02706 24.7017 3.96533 24.8508 3.96533 25.0062V39.1026C3.96533 39.258 4.02706 39.4071 4.13695 39.517C4.24683 39.6268 4.39587 39.6886 4.55127 39.6886C4.70667 39.6886 4.85571 39.6268 4.96559 39.517C5.07547 39.4071 5.13721 39.258 5.13721 39.1026V25.0062C5.13721 24.8508 5.07547 24.7017 4.96559 24.5918C4.85571 24.4819 4.70667 24.4202 4.55127 24.4202Z" fill="black"/>
<path d="M4.49219 23.6574C4.64759 23.6574 4.79662 23.5957 4.90651 23.4858C5.01639 23.3759 5.07812 23.2269 5.07812 23.0715V22.6526C5.07812 22.4972 5.01639 22.3482 4.90651 22.2383C4.79662 22.1284 4.64759 22.0667 4.49219 22.0667C4.33679 22.0667 4.18775 22.1284 4.07787 22.2383C3.96798 22.3482 3.90625 22.4972 3.90625 22.6526V23.0715C3.90625 23.2269 3.96798 23.3759 4.07787 23.4858C4.18775 23.5957 4.33679 23.6574 4.49219 23.6574Z" fill="black"/>
</svg>
