<svg width="52" height="51" viewBox="0 0 52 51" fill="none" xmlns="http://www.w3.org/2000/svg">
<rect y="3" width="31" height="36" rx="5" fill="#027FFF" fill-opacity="0.72"/>
<path d="M21.7922 6.6246C23.1742 6.57287 23.1732 4.71631 21.7922 4.66507H21.7914C20.4093 4.717 20.4111 6.57356 21.7922 6.6246Z" fill="black"/>
<path d="M17.3728 17.8223L17.3723 17.8218C16.5588 17.0566 15.2399 17.0568 14.4263 17.822C12.9307 19.256 14.3948 21.6022 16.4391 21.1008L16.6991 21.3454C16.1624 22.0536 15.7884 22.878 15.6286 23.7699H14.7427C14.3825 23.1842 13.7093 22.7902 12.9381 22.7902H12.9374C11.7869 22.7902 10.8545 23.6674 10.8545 24.7497C10.8756 26.7626 13.6795 27.4402 14.7428 25.7294H15.6287C15.7885 26.6214 16.1625 27.4458 16.6992 28.1541L16.4392 28.3986C15.7102 28.2154 14.9007 28.4122 14.3581 28.9736L14.3576 28.974C13.5837 29.7748 13.6467 31.0138 14.498 31.7419C15.3471 32.4683 16.6654 32.4122 17.4413 31.6098C17.9361 31.0979 18.0889 30.4067 17.9123 29.7844L18.1724 29.5398C18.9254 30.0445 19.8019 30.3964 20.7501 30.5467V31.3798C20.1274 31.7186 19.7085 32.3518 19.7085 33.0771V33.0778C19.7085 34.1599 20.6412 35.0369 21.7918 35.0369C23.9319 35.017 24.6523 32.3798 22.8335 31.3797V30.5466C23.7818 30.3963 24.6584 30.0444 25.4113 29.5397L25.6714 29.7843C25.4947 30.4066 25.6476 31.0978 26.1425 31.6097L26.143 31.6102C26.9188 32.4127 28.2367 32.4681 29.0857 31.7417C29.937 31.0137 29.9994 29.7741 29.2256 28.9734C28.683 28.412 27.8734 28.2152 27.1444 28.3984L26.8845 28.154C27.4212 27.4457 27.7954 26.6213 27.9551 25.7294H28.8408C29.201 26.3151 29.8742 26.7091 30.6454 26.7091H30.6462C31.7968 26.7091 32.7291 25.8318 32.7291 24.7496C32.708 22.7367 29.9041 22.0591 28.8408 23.7698H27.9551C27.7953 22.8778 27.4212 22.0535 26.8845 21.3452L27.1445 21.1006C27.8548 21.2764 28.6129 21.1021 29.1573 20.5932L29.1578 20.5927C29.9713 19.8274 29.9711 18.5871 29.1575 17.8218C28.3439 17.0565 27.0244 17.0569 26.2109 17.822C25.6656 18.3349 25.4858 19.0613 25.6714 19.715L25.4114 19.9595C24.6584 19.4546 23.7819 19.1028 22.8336 18.9526V18.1195C23.4563 17.7807 23.8753 17.1475 23.8753 16.4222V16.4215C23.8753 15.3393 22.9425 14.4623 21.7919 14.4623C19.6518 14.4822 18.9314 17.1195 20.7503 18.1196V18.9527C19.8019 19.103 18.9255 19.4548 18.1724 19.9596L17.9124 19.7151C18.0978 19.0615 17.9181 18.3351 17.3728 17.8223ZM21.7918 20.8307C24.0893 20.8307 25.9585 22.5888 25.9585 24.7498C25.7296 29.949 17.8532 29.9474 17.6251 24.7498C17.6251 22.5888 19.4943 20.8307 21.7918 20.8307Z" fill="black"/>
<path d="M46.332 35.7724C45.169 34.6321 43.0759 34.6322 41.9128 35.7724L39.27 38.2582L39.1705 38.1646C37.9521 37.0187 35.9696 37.0187 34.7513 38.1646C33.5331 39.3105 33.5331 41.1751 34.7513 42.321L37.0604 44.4929C38.2788 45.6387 40.2611 45.6387 41.4796 44.4929L46.332 39.9288C47.5443 38.835 47.5443 36.8664 46.332 35.7724ZM44.8588 38.5432L40.0064 43.1073C39.6005 43.4891 38.9397 43.4892 38.5336 43.1073L36.2246 40.9354C35.8186 40.5535 35.8186 39.932 36.2246 39.5501C36.6306 39.1682 37.2913 39.1682 37.6974 39.5501L38.5334 40.3365C38.9214 40.716 39.6186 40.716 40.0066 40.3365L43.386 37.1579C43.7735 36.778 44.4713 36.778 44.8588 37.1579C45.2629 37.5226 45.2629 38.1787 44.8588 38.5432Z" fill="black"/>
<path d="M41.5833 29.3995V8.58404C41.5833 6.96332 40.1814 5.64475 38.4583 5.64475H35.0537C34.693 5.05953 34.0195 4.66498 33.2501 4.66498H26.8956C25.6687 -0.534638 17.9124 -0.530915 16.6878 4.66498H10.3334C9.56387 4.66498 8.89043 5.05943 8.5297 5.64475H5.12501C3.40188 5.64475 2 6.96332 2 8.58404V44.0516C2 45.6723 3.40188 46.9909 5.12501 46.9909H31.709C38.4726 54.6993 51.9524 50.2495 52 40.1325C52 34.5202 47.4152 29.896 41.5833 29.3995ZM39.5 8.58404V29.3995C38.7848 29.4604 38.0883 29.5834 37.4167 29.7627V10.5436C37.4167 10.0025 36.9503 9.56381 36.3751 9.56381H35.3334V7.60428H38.4583C39.0327 7.60438 39.5 8.0439 39.5 8.58404ZM17.1046 10.5437H10.3334V6.62461H17.6249C18.2002 6.62461 18.6666 6.18597 18.6666 5.64484C18.8384 1.74498 24.7461 1.74675 24.9169 5.64484C24.9169 6.18597 25.3833 6.62461 25.9586 6.62461H33.2502V10.5437H26.4797C25.0977 10.5954 25.0987 12.452 26.4797 12.5032H33.2502C34.0198 12.5032 34.6932 12.1087 35.0539 11.5234H35.3335V30.5343C32.5299 31.8857 30.392 34.2922 29.5166 37.1931H12.9374C11.5553 37.2448 11.5564 39.1014 12.9374 39.1526H29.1303C29.0678 39.7965 29.0677 40.4685 29.1303 41.1123H8.25012V11.5233H8.5296C8.89033 12.1087 9.56377 12.5031 10.3334 12.5031H17.1046C18.4867 12.4515 18.4857 10.5949 17.1046 10.5437ZM5.12501 45.0313C4.55063 45.0313 4.08334 44.5918 4.08334 44.0516V8.58404C4.08334 8.0438 4.55063 7.60428 5.12501 7.60428H8.25001V9.56381H7.20845C6.63313 9.56381 6.16678 10.0025 6.16678 10.5436V42.092C6.16678 42.6332 6.63313 43.0718 7.20845 43.0718H29.5164C29.7226 43.7548 29.9986 44.4105 30.3368 45.0313H5.12501ZM40.5416 48.9506C35.3723 48.9506 31.1666 44.9949 31.1666 40.1327C31.6816 28.4346 49.4035 28.438 49.9167 40.1328C49.9167 44.9949 45.711 48.9506 40.5416 48.9506Z" fill="black"/>
<path d="M21.7925 10.5437H21.7918C21.2165 10.5437 20.7505 10.9823 20.7505 11.5234C20.8055 12.8229 22.7796 12.8229 22.8342 11.5234C22.8342 10.9823 22.3678 10.5437 21.7925 10.5437Z" fill="black"/>
</svg>
