<svg width="50" height="50" viewBox="0 0 50 50" fill="none" xmlns="http://www.w3.org/2000/svg">
<circle cx="31" cy="29" r="16" fill="#027FFF" fill-opacity="0.72"/>
<path d="M23.9368 9.92186C13.1554 9.92186 4.38513 18.6903 4.38513 29.4729C4.38513 40.254 13.1554 49.0256 23.9368 49.0256C34.7167 49.0256 43.4901 40.2525 43.4901 29.4729C43.4901 18.6918 34.7167 9.92186 23.9368 9.92186ZM23.9368 45.5138C15.0903 45.5138 7.89385 38.3176 7.89385 29.4683C7.89385 20.6236 15.0903 13.4274 23.9368 13.4274C32.7849 13.4274 39.9813 20.6251 39.9813 29.4683C39.9813 38.3176 32.7849 45.5138 23.9368 45.5138Z" fill="black"/>
<path d="M5.26308 16.9827C8.16979 16.9827 10.5262 14.6264 10.5262 11.7197C10.5262 8.81312 8.16979 6.45683 5.26308 6.45683C2.35636 6.45683 0 8.81312 0 11.7197C0 14.6264 2.35636 16.9827 5.26308 16.9827Z" fill="black"/>
<path d="M41.5053 14.5045C43.7277 14.5045 45.5293 12.703 45.5293 10.4807C45.5293 8.25837 43.7277 6.45683 41.5053 6.45683C39.2829 6.45683 37.4813 8.25837 37.4813 10.4807C37.4813 12.703 39.2829 14.5045 41.5053 14.5045Z" fill="black"/>
<path d="M47.4782 6.01943C48.871 6.01943 50 4.89042 50 3.49771C50 2.10501 48.871 0.975998 47.4782 0.975998C46.0855 0.975998 44.9564 2.10501 44.9564 3.49771C44.9564 4.89042 46.0855 6.01943 47.4782 6.01943Z" fill="black"/>
<path d="M15.1323 6.45839C16.2224 6.45839 17.1061 5.5747 17.1061 4.48461C17.1061 3.39451 16.2224 2.51082 15.1323 2.51082C14.0422 2.51082 13.1584 3.39451 13.1584 4.48461C13.1584 5.5747 14.0422 6.45839 15.1323 6.45839Z" fill="black"/>
<path d="M18.3079 21.2057C15.8608 21.2057 13.9523 21.8907 12.5825 23.2605C11.2111 24.6319 10.5261 26.5434 10.5261 29.0059C10.5261 30.7665 10.8717 32.2328 11.5644 33.4034C12.2556 34.5786 13.1584 35.4332 14.273 35.9749C15.386 36.5135 16.7932 36.7859 18.4931 36.7859C20.165 36.7859 21.5613 36.473 22.6821 35.8457C23.8029 35.2168 24.6575 34.3373 25.2522 33.2166C25.8437 32.0865 26.141 30.6451 26.141 28.8814C26.141 26.4547 25.4623 24.568 24.1049 23.2231C22.749 21.8766 20.8157 21.2057 18.3079 21.2057ZM20.6616 32.3262C20.1121 32.9769 19.3384 33.3022 18.339 33.3022C17.3645 33.3022 16.5971 32.9706 16.032 32.3044C15.4654 31.6382 15.1837 30.547 15.1837 29.0262C15.1837 27.4929 15.4685 26.3924 16.0383 25.7277C16.6064 25.063 17.3599 24.7284 18.3001 24.7284C19.2777 24.7284 20.0545 25.0568 20.6289 25.7106C21.2002 26.3644 21.4881 27.4011 21.4881 28.8207C21.485 30.505 21.2095 31.6755 20.6616 32.3262Z" fill="black"/>
<path d="M31.2687 33.791C31.4571 33.6384 31.8291 33.3053 32.3895 32.9177C33.3282 32.2546 33.9757 31.6164 34.3322 31.0654C34.6856 30.5112 34.8646 29.915 34.8646 29.3095C34.8646 28.7382 34.7089 28.2136 34.3992 27.7544C34.0863 27.2921 33.6613 26.9465 33.1227 26.7286C32.5779 26.5045 31.8213 26.3908 30.8453 26.3908C29.9097 26.3908 29.1812 26.506 28.6504 26.7411C28.1243 26.9715 27.7117 27.3077 27.4253 27.7467C27.1358 28.1825 26.9365 28.7911 26.8275 29.5726L29.6031 29.7998C29.6794 29.2379 29.8304 28.8441 30.0561 28.6199C30.2802 28.3989 30.5682 28.2884 30.9231 28.2884C31.264 28.2884 31.5458 28.3942 31.7715 28.6106C31.9972 28.8269 32.1077 29.0853 32.1077 29.3889C32.1077 29.6691 31.9941 29.9679 31.7684 30.2793C31.5396 30.5921 31.0212 31.0482 30.2086 31.6506C28.8792 32.6391 27.9748 33.366 27.4922 34.0852C27.0097 34.8106 26.7201 36.2769 26.6252 36.2769H34.2155V34.5226H30.6118C30.8593 34.5241 31.0804 33.9435 31.2687 33.791Z" fill="black"/>
</svg>
