<svg width="50" height="50" viewBox="0 0 50 50" fill="none" xmlns="http://www.w3.org/2000/svg">
<path d="M35.4167 6.25L43.75 14.5833" stroke="black" stroke-width="2.75" stroke-linecap="round" stroke-linejoin="round"/>
<path fill-rule="evenodd" clip-rule="evenodd" d="M10.437 34.1733C10.3874 34.5056 10.6731 34.7913 11.0054 34.7417L18.5847 33.61C18.8034 33.5774 18.952 33.418 18.997 33.2325L30.1261 22.1034L23.0754 15.0526L11.9463 26.1817C11.7608 26.2268 11.6014 26.3753 11.5687 26.5941L10.437 34.1733Z" fill="#027FFF" fill-opacity="0.72"/>
<path d="M39.5833 10.4167L30.2083 19.7917" stroke="black" stroke-width="2.75" stroke-linecap="round" stroke-linejoin="round"/>
<path d="M23.9583 13.5417L36.4583 26.0417" stroke="black" stroke-width="2.75" stroke-linecap="round" stroke-linejoin="round"/>
<path d="M34.375 23.9583L20.8333 37.5H12.5V29.1667L26.0417 15.625" stroke="black" stroke-width="2.75" stroke-linecap="round" stroke-linejoin="round"/>
<path d="M15.625 26.0417L18.75 29.1667" stroke="black" stroke-width="2.75" stroke-linecap="round" stroke-linejoin="round"/>
<path d="M21.875 19.7917L25 22.9167" stroke="black" stroke-width="2.75" stroke-linecap="round" stroke-linejoin="round"/>
<path d="M6.25 43.75L12.5 37.5" stroke="black" stroke-width="2.75" stroke-linecap="round" stroke-linejoin="round"/>
</svg>
